# xmcd CD database file
#
# Track frame offsets:
#	150
#	23045
#	41862
#	70077
#	95117
#	116487
#	138932
#	152037
#	169970
#	194422
#	219677
#	240115
#	274077
#	297080
#
# Disc length: 4320 seconds
#
# Revision: 0
# Processed by: cddbd v1.5.1PL2 Copyright (c) Steve Scherf et al.
# Submitted via: CDex 1.51
#
DISCID=cb10de0e
DTITLE=verve - de la musique pour faire jazzer
DYEAR=1900
DGENRE=Jazz
TTITLE0=yeah man/divers artistes
TTITLE1=wild man blues/nicholas payton
TTITLE2=besame mucho/teddy edwards
TTITLE3=street of dreams/ahmad jamal
TTITLE4=fever/shirley horn
TTITLE5=now is the hour/charlie haden quartet west
TTITLE6=you make me feel so young/densil pinnock&bill coon
TTITLE7=diner au motel/miles davis
TTITLE8=thelonius melodius/john mclaughin
TTITLE9=on the milky way express/wayne shorter
TTITLE10=last chance for common sense/rodney kendrick
TTITLE11=thieves in the temple/herbie hancock
TTITLE12=jayne/christian mcbride
TTITLE13=j'ai deux amours/michel legrand,stéphane grappelli
EXTD=
EXTT0=
EXTT1=
EXTT2=
EXTT3=
EXTT4=
EXTT5=
EXTT6=
EXTT7=
EXTT8=
EXTT9=
EXTT10=
EXTT11=
EXTT12=
EXTT13=
PLAYORDER=
